<svg width="54" height="54" viewBox="0 0 54 54" fill="none" xmlns="http://www.w3.org/2000/svg">
<path d="M32.6642 27.248C33.9842 27.704 35.0642 28.46 35.9042 29.516C36.7682 30.548 37.2002 31.904 37.2002 33.584C37.2002 36.248 36.4202 38.156 34.8602 39.308C33.3242 40.436 31.4402 41 29.2082 41H19.9562C19.4762 41 19.0682 40.832 18.7322 40.496C18.3962 40.16 18.2282 39.752 18.2282 39.272V17.528C18.2282 17.048 18.3962 16.64 18.7322 16.304C19.0682 15.968 19.4762 15.8 19.9562 15.8H29.2082C31.3922 15.8 33.0482 16.34 34.1762 17.42C35.3282 18.5 35.9042 20.06 35.9042 22.1C35.9042 23.252 35.6282 24.284 35.0762 25.196C34.5242 26.084 33.7202 26.768 32.6642 27.248ZM32.1962 22.64C32.1962 21.512 31.8842 20.66 31.2602 20.084C30.6602 19.484 29.8082 19.184 28.7042 19.184H21.9002V26.204H28.7762C29.7602 26.18 30.5762 25.868 31.2242 25.268C31.8722 24.644 32.1962 23.768 32.1962 22.64ZM29.1722 37.688C30.4922 37.688 31.5482 37.352 32.3402 36.68C33.1322 35.984 33.5282 34.952 33.5282 33.584C33.5282 30.92 32.0162 29.588 28.9922 29.588H21.9002V37.688H29.1722Z" fill="#46F496"/>
<rect x="1.5" y="1.5" width="51" height="51" rx="18.5" stroke="#46F496" stroke-width="3"/>
</svg>
